<svg xmlns="http://www.w3.org/2000/svg" version="1.1" xmlns:xlink="http://www.w3.org/1999/xlink" xmlns:svgjs="http://svgjs.dev/svgjs" width="800px" height="800px"><svg height="800px" width="800px" version="1.1" id="SvgjsSvg1013" xmlns="http://www.w3.org/2000/svg" xmlns:xlink="http://www.w3.org/1999/xlink" viewBox="0 0 512 512" xml:space="preserve">
	<path style="fill:#EAFFFF;" d="M445.217,489.739H66.783c-24.588,0-44.522-19.934-44.522-44.522V66.783
	c0-24.588,19.933-44.522,44.522-44.522h378.435c24.588,0,44.522,19.933,44.522,44.522v378.435
	C489.739,469.806,469.806,489.739,445.217,489.739z"></path>
	<path style="fill:#A9D5BB;" d="M512,133.565L512,133.565c0,12.295-9.966,22.261-22.261,22.261h-77.913
	c-12.295,0-22.261-9.966-22.261-22.261h-44.522c-12.295,0-22.261-9.966-22.261-22.261l0,0c0-12.295,9.966-22.261,22.261-22.261
	h77.913c12.295,0,22.261,9.966,22.261,22.261l0,0h44.522C502.034,111.304,512,121.271,512,133.565z M233.739,0H22.261
	C9.966,0,0,9.966,0,22.261l0,0c0,12.295,9.966,22.261,22.261,22.261h211.478c12.295,0,22.261-9.966,22.261-22.261l0,0
	C256,9.966,246.034,0,233.739,0z"></path>
	<path style="fill:#C5EAD4;" d="M422.957,133.565h-77.913c-12.295,0-22.261-9.966-22.261-22.261l0,0
	c0-12.295,9.966-22.261,22.261-22.261h77.913c12.295,0,22.261,9.966,22.261,22.261l0,0
	C445.217,123.599,435.251,133.565,422.957,133.565z"></path>
	<path style="fill:#727C7C;" d="M72.348,100.174c0,4.61-3.738,8.348-8.348,8.348c-10.74,0-19.478,8.739-19.478,19.478
	c0,4.61-3.738,8.348-8.348,8.348s-8.348-3.738-8.348-8.348c0-10.74-8.739-19.478-19.478-19.478c-4.61,0-8.348-3.738-8.348-8.348
	c0-4.61,3.738-8.348,8.348-8.348c11.176,0,21.186,5.096,27.826,13.084c6.64-7.988,16.65-13.084,27.826-13.084
	C68.61,91.826,72.348,95.564,72.348,100.174z"></path>
	<path style="fill:#7F932A;" d="M492.447,512H281.895c-9.804,0-16.882-9.383-14.188-18.809L370.58,133.138
	c1.81-6.334,7.6-10.702,14.188-10.702c6.588,0,12.378,4.368,14.188,10.702l104.193,364.674C505.18,504.922,499.841,512,492.447,512z
	 M141.599,133.137c-1.81-6.334-7.6-10.702-14.188-10.702l0,0c-6.588,0-12.378,4.368-14.188,10.702L10.35,493.191
	C7.657,502.617,14.734,512,24.538,512h210.551c7.395,0,12.733-7.078,10.702-14.188L141.599,133.137z"></path>
	<path style="fill:#A9A632;" d="M269.599,133.137l104.193,364.675c2.031,7.11-3.307,14.188-10.702,14.188H152.538
	c-9.804,0-16.882-9.383-14.188-18.809l102.872-360.053c1.81-6.334,7.6-10.702,14.188-10.702l0,0
	C261.999,122.435,267.789,126.802,269.599,133.137z"></path>
	<path style="fill:#825E06;" d="M393.027,308.87v194.783c0,4.61-3.738,8.348-8.348,8.348s-8.348-3.738-8.348-8.348V308.87
	c0-4.61,3.738-8.348,8.348-8.348S393.027,304.259,393.027,308.87z M127.321,300.522c-4.61,0-8.348,3.738-8.348,8.348v194.783
	c0,4.61,3.738,8.348,8.348,8.348s8.348-3.738,8.348-8.348V308.87C135.669,304.259,131.931,300.522,127.321,300.522z
	 M253.774,300.522c-4.61,0-8.348,3.738-8.348,8.348v194.783c0,4.61,3.738,8.348,8.348,8.348c4.61,0,8.348-3.738,8.348-8.348V308.87
	C262.122,304.259,258.384,300.522,253.774,300.522z"></path>
	<path style="fill:#606D11;" d="M512,503.652c0,4.61-3.738,8.348-8.348,8.348H8.348C3.738,512,0,508.262,0,503.652
	s3.738-8.348,8.348-8.348h495.304C508.262,495.304,512,499.042,512,503.652z"></path>
</svg><style>@media (prefers-color-scheme: light) { :root { filter: none; } }
@media (prefers-color-scheme: dark) { :root { filter: none; } }
</style></svg>